<svg xmlns="http://www.w3.org/2000/svg" width="34" height="40" viewbox="0 0 34 40" preserveAspectRatio="none"><rect x="0" y="0" width="100%" height="100%" fill="rgb(63, 143, 140)" /><rect x="-3.6666666666667" y="-3.6666666666667" width="7.3333333333333" height="7.3333333333333" stroke="#000" stroke-opacity="0.02" fill="#222" fill-opacity="0.028666666666667" stroke-width="1" /><rect x="31.035039255505" y="-3.6666666666667" width="7.3333333333333" height="7.3333333333333" stroke="#000" stroke-opacity="0.02" fill="#222" fill-opacity="0.028666666666667" stroke-width="1" /><rect x="-3.6666666666667" y="36.403411844344" width="7.3333333333333" height="7.3333333333333" stroke="#000" stroke-opacity="0.02" fill="#222" fill-opacity="0.028666666666667" stroke-width="1" /><rect x="31.035039255505" y="36.403411844344" width="7.3333333333333" height="7.3333333333333" stroke="#000" stroke-opacity="0.02" fill="#222" fill-opacity="0.028666666666667" stroke-width="1" /><rect x="13.684186294419" y="6.3508529610859" width="7.3333333333333" height="7.3333333333333" stroke="#000" stroke-opacity="0.02" fill="#ddd" fill-opacity="0.124" stroke-width="1" /><rect x="-3.6666666666667" y="16.368372588838" width="7.3333333333333" height="7.3333333333333" stroke="#000" stroke-opacity="0.02" fill="#ddd" fill-opacity="0.089333333333333" stroke-width="1" /><rect x="31.035039255505" y="16.368372588838" width="7.3333333333333" height="7.3333333333333" stroke="#000" stroke-opacity="0.02" fill="#ddd" fill-opacity="0.089333333333333" stroke-width="1" /><rect x="13.684186294419" y="26.385892216591" width="7.3333333333333" height="7.3333333333333" stroke="#000" stroke-opacity="0.02" fill="#ddd" fill-opacity="0.124" stroke-width="1" /><polyline points="0, 0, 6.3508529610859, 3.6666666666667, 0, 7.3333333333333, 0, 0" stroke="#000" stroke-opacity="0.02" fill="#ddd" fill-opacity="0.02" stroke-width="1" transform="translate(3.6666666666667, -3.6666666666667) rotate(0, 3.6666666666667, 3.1754264805429)" /><polyline points="0, 0, 6.3508529610859, 3.6666666666667, 0, 7.3333333333333, 0, 0" stroke="#000" stroke-opacity="0.02" fill="#ddd" fill-opacity="0.02" stroke-width="1" transform="translate(3.6666666666667, 43.736745177677) rotate(0, 3.6666666666667, 3.1754264805429) scale(1, -1)" /><polyline points="0, 0, 6.3508529610859, 3.6666666666667, 0, 7.3333333333333, 0, 0" stroke="#000" stroke-opacity="0.02" fill="#222" fill-opacity="0.15" stroke-width="1" transform="translate(31.035039255505, -3.6666666666667) rotate(0, 3.6666666666667, 3.1754264805429) scale(-1, 1)" /><polyline points="0, 0, 6.3508529610859, 3.6666666666667, 0, 7.3333333333333, 0, 0" stroke="#000" stroke-opacity="0.02" fill="#222" fill-opacity="0.15" stroke-width="1" transform="translate(31.035039255505, 43.736745177677) rotate(0, 3.6666666666667, 3.1754264805429) scale(-1, -1)" /><polyline points="0, 0, 6.3508529610859, 3.6666666666667, 0, 7.3333333333333, 0, 0" stroke="#000" stroke-opacity="0.02" fill="#222" fill-opacity="0.15" stroke-width="1" transform="translate(21.017519627753, 6.3508529610859)" /><polyline points="0, 0, 6.3508529610859, 3.6666666666667, 0, 7.3333333333333, 0, 0" stroke="#000" stroke-opacity="0.02" fill="#222" fill-opacity="0.046" stroke-width="1" transform="translate(13.684186294419, 6.3508529610859) scale(-1, 1)" /><polyline points="0, 0, 6.3508529610859, 3.6666666666667, 0, 7.3333333333333, 0, 0" stroke="#000" stroke-opacity="0.02" fill="#ddd" fill-opacity="0.089333333333333" stroke-width="1" transform="translate(21.017519627753, 33.719225549924) scale(1, -1)" /><polyline points="0, 0, 6.3508529610859, 3.6666666666667, 0, 7.3333333333333, 0, 0" stroke="#000" stroke-opacity="0.02" fill="#ddd" fill-opacity="0.054666666666667" stroke-width="1" transform="translate(13.684186294419, 33.719225549924) scale(-1, -1)" /><polyline points="0, 0, 6.3508529610859, 3.6666666666667, 0, 7.3333333333333, 0, 0" stroke="#000" stroke-opacity="0.02" fill="#222" fill-opacity="0.028666666666667" stroke-width="1" transform="translate(3.6666666666667, 16.368372588838)" /><polyline points="0, 0, 6.3508529610859, 3.6666666666667, 0, 7.3333333333333, 0, 0" stroke="#000" stroke-opacity="0.02" fill="#ddd" fill-opacity="0.14133333333333" stroke-width="1" transform="translate(31.035039255505, 16.368372588838) scale(-1, 1)" /><rect x="0" y="0" width="7.3333333333333" height="7.3333333333333" stroke="#000" stroke-opacity="0.02" fill="#ddd" fill-opacity="0.089333333333333" stroke-width="1" transform="translate(3.6666666666667, 3.6666666666667) rotate(-30, 0, 0)" /><rect x="0" y="0" width="7.3333333333333" height="7.3333333333333" stroke="#000" stroke-opacity="0.02" fill="#ddd" fill-opacity="0.10666666666667" stroke-width="1" transform="scale(-1, 1) translate(-31.035039255505, 3.6666666666667) rotate(-30, 0, 0)" /><rect x="0" y="0" width="7.3333333333333" height="7.3333333333333" stroke="#000" stroke-opacity="0.02" fill="#ddd" fill-opacity="0.089333333333333" stroke-width="1" transform="translate(3.6666666666667, 9.0350392555051) rotate(30, 0, 7.3333333333333)" /><rect x="0" y="0" width="7.3333333333333" height="7.3333333333333" stroke="#000" stroke-opacity="0.02" fill="#ddd" fill-opacity="0.037333333333333" stroke-width="1" transform="scale(-1, 1) translate(-31.035039255505, 9.0350392555051) rotate(30, 0, 7.3333333333333)" /><rect x="0" y="0" width="7.3333333333333" height="7.3333333333333" stroke="#000" stroke-opacity="0.02" fill="#222" fill-opacity="0.063333333333333" stroke-width="1" transform="scale(1, -1) translate(3.6666666666667, -31.035039255505) rotate(30, 0, 7.3333333333333)" /><rect x="0" y="0" width="7.3333333333333" height="7.3333333333333" stroke="#000" stroke-opacity="0.02" fill="#222" fill-opacity="0.046" stroke-width="1" transform="scale(-1, -1) translate(-31.035039255505, -31.035039255505) rotate(30, 0, 7.3333333333333)" /><rect x="0" y="0" width="7.3333333333333" height="7.3333333333333" stroke="#000" stroke-opacity="0.02" fill="#ddd" fill-opacity="0.054666666666667" stroke-width="1" transform="scale(1, -1) translate(3.6666666666667, -36.403411844344) rotate(-30, 0, 0)" /><rect x="0" y="0" width="7.3333333333333" height="7.3333333333333" stroke="#000" stroke-opacity="0.02" fill="#222" fill-opacity="0.028666666666667" stroke-width="1" transform="scale(-1, -1) translate(-31.035039255505, -36.403411844344) rotate(-30, 0, 0)" /></svg>